<svg width="172" height="172" viewBox="0 0 172 172" fill="none" xmlns="http://www.w3.org/2000/svg">
<g clip-path="url(#clip0_80_3325)">
<rect width="172" height="172" fill="#F4F4F4"/>
<path d="M9.55556 0H0V9.55556H9.55556V0Z" stroke="#9B9B9B" stroke-width="0.1075"/>
<path d="M19.1111 2.28882e-05H9.55554V9.55558H19.1111V2.28882e-05Z" stroke="#9B9B9B" stroke-width="0.1075"/>
<path d="M28.6668 2.28882e-05H19.1112V9.55558H28.6668V2.28882e-05Z" stroke="#9B9B9B" stroke-width="0.1075"/>
<path d="M38.2222 2.28882e-05H28.6666V9.55558H38.2222V2.28882e-05Z" stroke="#9B9B9B" stroke-width="0.1075"/>
<path d="M47.7777 2.28882e-05H38.2222V9.55558H47.7777V2.28882e-05Z" stroke="#9B9B9B" stroke-width="0.1075"/>
<path d="M57.3334 2.28882e-05H47.7778V9.55558H57.3334V2.28882e-05Z" stroke="#9B9B9B" stroke-width="0.1075"/>
<path d="M66.8889 2.28882e-05H57.3334V9.55558H66.8889V2.28882e-05Z" stroke="#9B9B9B" stroke-width="0.1075"/>
<path d="M76.4443 2.28882e-05H66.8888V9.55558H76.4443V2.28882e-05Z" stroke="#9B9B9B" stroke-width="0.1075"/>
<path d="M86 2.28882e-05H76.4445V9.55558H86V2.28882e-05Z" stroke="#9B9B9B" stroke-width="0.1075"/>
<path d="M95.5556 2.28882e-05H86V9.55558H95.5556V2.28882e-05Z" stroke="#9B9B9B" stroke-width="0.1075"/>
<path d="M105.111 2.28882e-05H95.5555V9.55558H105.111V2.28882e-05Z" stroke="#9B9B9B" stroke-width="0.1075"/>
<path d="M114.667 2.28882e-05H105.111V9.55558H114.667V2.28882e-05Z" stroke="#9B9B9B" stroke-width="0.1075"/>
<path d="M124.222 2.28882e-05H114.667V9.55558H124.222V2.28882e-05Z" stroke="#9B9B9B" stroke-width="0.1075"/>
<path d="M133.778 2.28882e-05H124.222V9.55558H133.778V2.28882e-05Z" stroke="#9B9B9B" stroke-width="0.1075"/>
<path d="M143.333 2.28882e-05H133.778V9.55558H143.333V2.28882e-05Z" stroke="#9B9B9B" stroke-width="0.1075"/>
<path d="M152.889 2.28882e-05H143.333V9.55558H152.889V2.28882e-05Z" stroke="#9B9B9B" stroke-width="0.1075"/>
<path d="M162.444 2.28882e-05H152.889V9.55558H162.444V2.28882e-05Z" stroke="#9B9B9B" stroke-width="0.1075"/>
<path d="M172 2.28882e-05H162.444V9.55558H172V2.28882e-05Z" stroke="#9B9B9B" stroke-width="0.1075"/>
<path d="M181.556 2.28882e-05H172V9.55558H181.556V2.28882e-05Z" stroke="#9B9B9B" stroke-width="0.1075"/>
<path d="M9.55556 9.55559H0V19.1111H9.55556V9.55559Z" stroke="#9B9B9B" stroke-width="0.1075"/>
<path d="M19.1111 9.55559H9.55554V19.1111H19.1111V9.55559Z" stroke="#9B9B9B" stroke-width="0.1075"/>
<path d="M28.6668 9.55559H19.1112V19.1111H28.6668V9.55559Z" stroke="#9B9B9B" stroke-width="0.1075"/>
<path d="M38.2222 9.55559H28.6666V19.1111H38.2222V9.55559Z" stroke="#9B9B9B" stroke-width="0.1075"/>
<path d="M47.7777 9.55559H38.2222V19.1111H47.7777V9.55559Z" stroke="#9B9B9B" stroke-width="0.1075"/>
<path d="M57.3334 9.55559H47.7778V19.1111H57.3334V9.55559Z" stroke="#9B9B9B" stroke-width="0.1075"/>
<path d="M66.8889 9.55559H57.3334V19.1111H66.8889V9.55559Z" stroke="#9B9B9B" stroke-width="0.1075"/>
<path d="M76.4443 9.55559H66.8888V19.1111H76.4443V9.55559Z" stroke="#9B9B9B" stroke-width="0.1075"/>
<path d="M86 9.55559H76.4445V19.1111H86V9.55559Z" stroke="#9B9B9B" stroke-width="0.1075"/>
<path d="M95.5556 9.55559H86V19.1111H95.5556V9.55559Z" stroke="#9B9B9B" stroke-width="0.1075"/>
<path d="M105.111 9.55559H95.5555V19.1111H105.111V9.55559Z" stroke="#9B9B9B" stroke-width="0.1075"/>
<path d="M114.667 9.55559H105.111V19.1111H114.667V9.55559Z" stroke="#9B9B9B" stroke-width="0.1075"/>
<path d="M124.222 9.55559H114.667V19.1111H124.222V9.55559Z" stroke="#9B9B9B" stroke-width="0.1075"/>
<path d="M133.778 9.55559H124.222V19.1111H133.778V9.55559Z" stroke="#9B9B9B" stroke-width="0.1075"/>
<path d="M143.333 9.55559H133.778V19.1111H143.333V9.55559Z" stroke="#9B9B9B" stroke-width="0.1075"/>
<path d="M152.889 9.55559H143.333V19.1111H152.889V9.55559Z" stroke="#9B9B9B" stroke-width="0.1075"/>
<path d="M162.444 9.55559H152.889V19.1111H162.444V9.55559Z" stroke="#9B9B9B" stroke-width="0.1075"/>
<path d="M172 9.55559H162.444V19.1111H172V9.55559Z" stroke="#9B9B9B" stroke-width="0.1075"/>
<path d="M181.556 9.55559H172V19.1111H181.556V9.55559Z" stroke="#9B9B9B" stroke-width="0.1075"/>
<path d="M9.55556 19.1111H0V28.6667H9.55556V19.1111Z" stroke="#9B9B9B" stroke-width="0.1075"/>
<path d="M19.1111 19.1111H9.55554V28.6667H19.1111V19.1111Z" stroke="#9B9B9B" stroke-width="0.1075"/>
<path d="M28.6668 19.1111H19.1112V28.6667H28.6668V19.1111Z" stroke="#9B9B9B" stroke-width="0.1075"/>
<path d="M38.2222 19.1111H28.6666V28.6667H38.2222V19.1111Z" stroke="#9B9B9B" stroke-width="0.1075"/>
<path d="M47.7777 19.1111H38.2222V28.6667H47.7777V19.1111Z" stroke="#9B9B9B" stroke-width="0.1075"/>
<path d="M57.3334 19.1111H47.7778V28.6667H57.3334V19.1111Z" stroke="#9B9B9B" stroke-width="0.1075"/>
<path d="M66.8889 19.1111H57.3334V28.6667H66.8889V19.1111Z" stroke="#9B9B9B" stroke-width="0.1075"/>
<path d="M76.4443 19.1111H66.8888V28.6667H76.4443V19.1111Z" stroke="#9B9B9B" stroke-width="0.1075"/>
<path d="M86 19.1111H76.4445V28.6667H86V19.1111Z" stroke="#9B9B9B" stroke-width="0.1075"/>
<path d="M95.5556 19.1111H86V28.6667H95.5556V19.1111Z" stroke="#9B9B9B" stroke-width="0.1075"/>
<path d="M105.111 19.1111H95.5555V28.6667H105.111V19.1111Z" stroke="#9B9B9B" stroke-width="0.1075"/>
<path d="M114.667 19.1111H105.111V28.6667H114.667V19.1111Z" stroke="#9B9B9B" stroke-width="0.1075"/>
<path d="M124.222 19.1111H114.667V28.6667H124.222V19.1111Z" stroke="#9B9B9B" stroke-width="0.1075"/>
<path d="M133.778 19.1111H124.222V28.6667H133.778V19.1111Z" stroke="#9B9B9B" stroke-width="0.1075"/>
<path d="M143.333 19.1111H133.778V28.6667H143.333V19.1111Z" stroke="#9B9B9B" stroke-width="0.1075"/>
<path d="M152.889 19.1111H143.333V28.6667H152.889V19.1111Z" stroke="#9B9B9B" stroke-width="0.1075"/>
<path d="M162.444 19.1111H152.889V28.6667H162.444V19.1111Z" stroke="#9B9B9B" stroke-width="0.1075"/>
<path d="M172 19.1111H162.444V28.6667H172V19.1111Z" stroke="#9B9B9B" stroke-width="0.1075"/>
<path d="M181.556 19.1111H172V28.6667H181.556V19.1111Z" stroke="#9B9B9B" stroke-width="0.1075"/>
<path d="M9.55556 28.6667H0V38.2222H9.55556V28.6667Z" stroke="#9B9B9B" stroke-width="0.1075"/>
<path d="M19.1111 28.6667H9.55554V38.2222H19.1111V28.6667Z" stroke="#9B9B9B" stroke-width="0.1075"/>
<path d="M28.6668 28.6667H19.1112V38.2222H28.6668V28.6667Z" stroke="#9B9B9B" stroke-width="0.1075"/>
<path d="M38.2222 28.6667H28.6666V38.2222H38.2222V28.6667Z" stroke="#9B9B9B" stroke-width="0.1075"/>
<path d="M47.7777 28.6667H38.2222V38.2222H47.7777V28.6667Z" stroke="#9B9B9B" stroke-width="0.1075"/>
<path d="M57.3334 28.6667H47.7778V38.2222H57.3334V28.6667Z" stroke="#9B9B9B" stroke-width="0.1075"/>
<path d="M66.8889 28.6667H57.3334V38.2222H66.8889V28.6667Z" stroke="#9B9B9B" stroke-width="0.1075"/>
<path d="M76.4443 28.6667H66.8888V38.2222H76.4443V28.6667Z" stroke="#9B9B9B" stroke-width="0.1075"/>
<path d="M86 28.6667H76.4445V38.2222H86V28.6667Z" stroke="#9B9B9B" stroke-width="0.1075"/>
<path d="M95.5556 28.6667H86V38.2222H95.5556V28.6667Z" stroke="#9B9B9B" stroke-width="0.1075"/>
<path d="M105.111 28.6667H95.5555V38.2222H105.111V28.6667Z" stroke="#9B9B9B" stroke-width="0.1075"/>
<path d="M114.667 28.6667H105.111V38.2222H114.667V28.6667Z" stroke="#9B9B9B" stroke-width="0.1075"/>
<path d="M124.222 28.6667H114.667V38.2222H124.222V28.6667Z" stroke="#9B9B9B" stroke-width="0.1075"/>
<path d="M133.778 28.6667H124.222V38.2222H133.778V28.6667Z" stroke="#9B9B9B" stroke-width="0.1075"/>
<path d="M143.333 28.6667H133.778V38.2222H143.333V28.6667Z" stroke="#9B9B9B" stroke-width="0.1075"/>
<path d="M152.889 28.6667H143.333V38.2222H152.889V28.6667Z" stroke="#9B9B9B" stroke-width="0.1075"/>
<path d="M162.444 28.6667H152.889V38.2222H162.444V28.6667Z" stroke="#9B9B9B" stroke-width="0.1075"/>
<path d="M172 28.6667H162.444V38.2222H172V28.6667Z" stroke="#9B9B9B" stroke-width="0.1075"/>
<path d="M181.556 28.6667H172V38.2222H181.556V28.6667Z" stroke="#9B9B9B" stroke-width="0.1075"/>
<path d="M9.55556 38.2222H0V47.7778H9.55556V38.2222Z" stroke="#9B9B9B" stroke-width="0.1075"/>
<path d="M19.1111 38.2222H9.55554V47.7778H19.1111V38.2222Z" stroke="#9B9B9B" stroke-width="0.1075"/>
<path d="M28.6668 38.2222H19.1112V47.7778H28.6668V38.2222Z" stroke="#9B9B9B" stroke-width="0.1075"/>
<path d="M38.2222 38.2222H28.6666V47.7778H38.2222V38.2222Z" stroke="#9B9B9B" stroke-width="0.1075"/>
<path d="M47.7777 38.2222H38.2222V47.7778H47.7777V38.2222Z" stroke="#9B9B9B" stroke-width="0.1075"/>
<path d="M57.3334 38.2222H47.7778V47.7778H57.3334V38.2222Z" stroke="#9B9B9B" stroke-width="0.1075"/>
<path d="M66.8889 38.2222H57.3334V47.7778H66.8889V38.2222Z" stroke="#9B9B9B" stroke-width="0.1075"/>
<path d="M76.4443 38.2222H66.8888V47.7778H76.4443V38.2222Z" stroke="#9B9B9B" stroke-width="0.1075"/>
<path d="M86 38.2222H76.4445V47.7778H86V38.2222Z" stroke="#9B9B9B" stroke-width="0.1075"/>
<path d="M95.5556 38.2222H86V47.7778H95.5556V38.2222Z" stroke="#9B9B9B" stroke-width="0.1075"/>
<path d="M105.111 38.2222H95.5555V47.7778H105.111V38.2222Z" stroke="#9B9B9B" stroke-width="0.1075"/>
<path d="M114.667 38.2222H105.111V47.7778H114.667V38.2222Z" stroke="#9B9B9B" stroke-width="0.1075"/>
<path d="M124.222 38.2222H114.667V47.7778H124.222V38.2222Z" stroke="#9B9B9B" stroke-width="0.1075"/>
<path d="M133.778 38.2222H124.222V47.7778H133.778V38.2222Z" stroke="#9B9B9B" stroke-width="0.1075"/>
<path d="M143.333 38.2222H133.778V47.7778H143.333V38.2222Z" stroke="#9B9B9B" stroke-width="0.1075"/>
<path d="M152.889 38.2222H143.333V47.7778H152.889V38.2222Z" stroke="#9B9B9B" stroke-width="0.1075"/>
<path d="M162.444 38.2222H152.889V47.7778H162.444V38.2222Z" stroke="#9B9B9B" stroke-width="0.1075"/>
<path d="M172 38.2222H162.444V47.7778H172V38.2222Z" stroke="#9B9B9B" stroke-width="0.1075"/>
<path d="M181.556 38.2222H172V47.7778H181.556V38.2222Z" stroke="#9B9B9B" stroke-width="0.1075"/>
<path d="M9.55556 47.7778H0V57.3333H9.55556V47.7778Z" stroke="#9B9B9B" stroke-width="0.1075"/>
<path d="M19.1111 47.7778H9.55554V57.3333H19.1111V47.7778Z" stroke="#9B9B9B" stroke-width="0.1075"/>
<path d="M28.6668 47.7778H19.1112V57.3333H28.6668V47.7778Z" stroke="#9B9B9B" stroke-width="0.1075"/>
<path d="M38.2222 47.7778H28.6666V57.3333H38.2222V47.7778Z" stroke="#9B9B9B" stroke-width="0.1075"/>
<path d="M47.7777 47.7778H38.2222V57.3333H47.7777V47.7778Z" stroke="#9B9B9B" stroke-width="0.1075"/>
<path d="M57.3334 47.7778H47.7778V57.3333H57.3334V47.7778Z" stroke="#9B9B9B" stroke-width="0.1075"/>
<path d="M66.8889 47.7778H57.3334V57.3333H66.8889V47.7778Z" stroke="#9B9B9B" stroke-width="0.1075"/>
<path d="M76.4443 47.7778H66.8888V57.3333H76.4443V47.7778Z" stroke="#9B9B9B" stroke-width="0.1075"/>
<path d="M86 47.7778H76.4445V57.3333H86V47.7778Z" stroke="#9B9B9B" stroke-width="0.1075"/>
<path d="M95.5556 47.7778H86V57.3333H95.5556V47.7778Z" stroke="#9B9B9B" stroke-width="0.1075"/>
<path d="M105.111 47.7778H95.5555V57.3333H105.111V47.7778Z" stroke="#9B9B9B" stroke-width="0.1075"/>
<path d="M114.667 47.7778H105.111V57.3333H114.667V47.7778Z" stroke="#9B9B9B" stroke-width="0.1075"/>
<path d="M124.222 47.7778H114.667V57.3333H124.222V47.7778Z" stroke="#9B9B9B" stroke-width="0.1075"/>
<path d="M133.778 47.7778H124.222V57.3333H133.778V47.7778Z" stroke="#9B9B9B" stroke-width="0.1075"/>
<path d="M143.333 47.7778H133.778V57.3333H143.333V47.7778Z" stroke="#9B9B9B" stroke-width="0.1075"/>
<path d="M152.889 47.7778H143.333V57.3333H152.889V47.7778Z" stroke="#9B9B9B" stroke-width="0.1075"/>
<path d="M162.444 47.7778H152.889V57.3333H162.444V47.7778Z" stroke="#9B9B9B" stroke-width="0.1075"/>
<path d="M172 47.7778H162.444V57.3333H172V47.7778Z" stroke="#9B9B9B" stroke-width="0.1075"/>
<path d="M181.556 47.7778H172V57.3333H181.556V47.7778Z" stroke="#9B9B9B" stroke-width="0.1075"/>
<path d="M9.55556 57.3333H0V66.8889H9.55556V57.3333Z" stroke="#9B9B9B" stroke-width="0.1075"/>
<path d="M19.1111 57.3333H9.55554V66.8889H19.1111V57.3333Z" stroke="#9B9B9B" stroke-width="0.1075"/>
<path d="M28.6668 57.3333H19.1112V66.8889H28.6668V57.3333Z" stroke="#9B9B9B" stroke-width="0.1075"/>
<path d="M38.2222 57.3333H28.6666V66.8889H38.2222V57.3333Z" stroke="#9B9B9B" stroke-width="0.1075"/>
<path d="M47.7777 57.3333H38.2222V66.8889H47.7777V57.3333Z" stroke="#9B9B9B" stroke-width="0.1075"/>
<path d="M57.3334 57.3333H47.7778V66.8889H57.3334V57.3333Z" stroke="#9B9B9B" stroke-width="0.1075"/>
<path d="M66.8889 57.3333H57.3334V66.8889H66.8889V57.3333Z" stroke="#9B9B9B" stroke-width="0.1075"/>
<path d="M76.4443 57.3333H66.8888V66.8889H76.4443V57.3333Z" stroke="#9B9B9B" stroke-width="0.1075"/>
<path d="M86 57.3333H76.4445V66.8889H86V57.3333Z" stroke="#9B9B9B" stroke-width="0.1075"/>
<path d="M95.5556 57.3333H86V66.8889H95.5556V57.3333Z" stroke="#9B9B9B" stroke-width="0.1075"/>
<path d="M105.111 57.3333H95.5555V66.8889H105.111V57.3333Z" stroke="#9B9B9B" stroke-width="0.1075"/>
<path d="M114.667 57.3333H105.111V66.8889H114.667V57.3333Z" stroke="#9B9B9B" stroke-width="0.1075"/>
<path d="M124.222 57.3333H114.667V66.8889H124.222V57.3333Z" stroke="#9B9B9B" stroke-width="0.1075"/>
<path d="M133.778 57.3333H124.222V66.8889H133.778V57.3333Z" stroke="#9B9B9B" stroke-width="0.1075"/>
<path d="M143.333 57.3333H133.778V66.8889H143.333V57.3333Z" stroke="#9B9B9B" stroke-width="0.1075"/>
<path d="M152.889 57.3333H143.333V66.8889H152.889V57.3333Z" stroke="#9B9B9B" stroke-width="0.1075"/>
<path d="M162.444 57.3333H152.889V66.8889H162.444V57.3333Z" stroke="#9B9B9B" stroke-width="0.1075"/>
<path d="M172 57.3333H162.444V66.8889H172V57.3333Z" stroke="#9B9B9B" stroke-width="0.1075"/>
<path d="M181.556 57.3333H172V66.8889H181.556V57.3333Z" stroke="#9B9B9B" stroke-width="0.1075"/>
<path d="M9.55556 66.8889H0V76.4445H9.55556V66.8889Z" stroke="#9B9B9B" stroke-width="0.1075"/>
<path d="M19.1111 66.8889H9.55554V76.4445H19.1111V66.8889Z" stroke="#9B9B9B" stroke-width="0.1075"/>
<path d="M28.6668 66.8889H19.1112V76.4445H28.6668V66.8889Z" stroke="#9B9B9B" stroke-width="0.1075"/>
<path d="M38.2222 66.8889H28.6666V76.4445H38.2222V66.8889Z" stroke="#9B9B9B" stroke-width="0.1075"/>
<path d="M47.7777 66.8889H38.2222V76.4445H47.7777V66.8889Z" stroke="#9B9B9B" stroke-width="0.1075"/>
<path d="M57.3334 66.8889H47.7778V76.4445H57.3334V66.8889Z" stroke="#9B9B9B" stroke-width="0.1075"/>
<path d="M66.8889 66.8889H57.3334V76.4445H66.8889V66.8889Z" stroke="#9B9B9B" stroke-width="0.1075"/>
<path d="M76.4443 66.8889H66.8888V76.4445H76.4443V66.8889Z" stroke="#9B9B9B" stroke-width="0.1075"/>
<path d="M86 66.8889H76.4445V76.4445H86V66.8889Z" stroke="#9B9B9B" stroke-width="0.1075"/>
<path d="M95.5556 66.8889H86V76.4445H95.5556V66.8889Z" stroke="#9B9B9B" stroke-width="0.1075"/>
<path d="M105.111 66.8889H95.5555V76.4445H105.111V66.8889Z" stroke="#9B9B9B" stroke-width="0.1075"/>
<path d="M114.667 66.8889H105.111V76.4445H114.667V66.8889Z" stroke="#9B9B9B" stroke-width="0.1075"/>
<path d="M124.222 66.8889H114.667V76.4445H124.222V66.8889Z" stroke="#9B9B9B" stroke-width="0.1075"/>
<path d="M133.778 66.8889H124.222V76.4445H133.778V66.8889Z" stroke="#9B9B9B" stroke-width="0.1075"/>
<path d="M143.333 66.8889H133.778V76.4445H143.333V66.8889Z" stroke="#9B9B9B" stroke-width="0.1075"/>
<path d="M152.889 66.8889H143.333V76.4445H152.889V66.8889Z" stroke="#9B9B9B" stroke-width="0.1075"/>
<path d="M162.444 66.8889H152.889V76.4445H162.444V66.8889Z" stroke="#9B9B9B" stroke-width="0.1075"/>
<path d="M172 66.8889H162.444V76.4445H172V66.8889Z" stroke="#9B9B9B" stroke-width="0.1075"/>
<path d="M181.556 66.8889H172V76.4445H181.556V66.8889Z" stroke="#9B9B9B" stroke-width="0.1075"/>
<path d="M9.55556 76.4445H0V86H9.55556V76.4445Z" stroke="#9B9B9B" stroke-width="0.1075"/>
<path d="M19.1111 76.4445H9.55554V86H19.1111V76.4445Z" stroke="#9B9B9B" stroke-width="0.1075"/>
<path d="M28.6668 76.4445H19.1112V86H28.6668V76.4445Z" stroke="#9B9B9B" stroke-width="0.1075"/>
<path d="M38.2222 76.4445H28.6666V86H38.2222V76.4445Z" stroke="#9B9B9B" stroke-width="0.1075"/>
<path d="M47.7777 76.4445H38.2222V86H47.7777V76.4445Z" stroke="#9B9B9B" stroke-width="0.1075"/>
<path d="M57.3334 76.4445H47.7778V86H57.3334V76.4445Z" stroke="#9B9B9B" stroke-width="0.1075"/>
<path d="M66.8889 76.4445H57.3334V86H66.8889V76.4445Z" stroke="#9B9B9B" stroke-width="0.1075"/>
<path d="M76.4443 76.4445H66.8888V86H76.4443V76.4445Z" stroke="#9B9B9B" stroke-width="0.1075"/>
<path d="M86 76.4445H76.4445V86H86V76.4445Z" stroke="#9B9B9B" stroke-width="0.1075"/>
<path d="M95.5556 76.4445H86V86H95.5556V76.4445Z" stroke="#9B9B9B" stroke-width="0.1075"/>
<path d="M105.111 76.4445H95.5555V86H105.111V76.4445Z" stroke="#9B9B9B" stroke-width="0.1075"/>
<path d="M114.667 76.4445H105.111V86H114.667V76.4445Z" stroke="#9B9B9B" stroke-width="0.1075"/>
<path d="M124.222 76.4445H114.667V86H124.222V76.4445Z" stroke="#9B9B9B" stroke-width="0.1075"/>
<path d="M133.778 76.4445H124.222V86H133.778V76.4445Z" stroke="#9B9B9B" stroke-width="0.1075"/>
<path d="M143.333 76.4445H133.778V86H143.333V76.4445Z" stroke="#9B9B9B" stroke-width="0.1075"/>
<path d="M152.889 76.4445H143.333V86H152.889V76.4445Z" stroke="#9B9B9B" stroke-width="0.1075"/>
<path d="M162.444 76.4445H152.889V86H162.444V76.4445Z" stroke="#9B9B9B" stroke-width="0.1075"/>
<path d="M172 76.4445H162.444V86H172V76.4445Z" stroke="#9B9B9B" stroke-width="0.1075"/>
<path d="M181.556 76.4445H172V86H181.556V76.4445Z" stroke="#9B9B9B" stroke-width="0.1075"/>
<path d="M9.55556 86H0V95.5556H9.55556V86Z" stroke="#9B9B9B" stroke-width="0.1075"/>
<path d="M19.1111 86H9.55554V95.5556H19.1111V86Z" stroke="#9B9B9B" stroke-width="0.1075"/>
<path d="M28.6668 86H19.1112V95.5556H28.6668V86Z" stroke="#9B9B9B" stroke-width="0.1075"/>
<path d="M38.2222 86H28.6666V95.5556H38.2222V86Z" stroke="#9B9B9B" stroke-width="0.1075"/>
<path d="M47.7777 86H38.2222V95.5556H47.7777V86Z" stroke="#9B9B9B" stroke-width="0.1075"/>
<path d="M57.3334 86H47.7778V95.5556H57.3334V86Z" stroke="#9B9B9B" stroke-width="0.1075"/>
<path d="M66.8889 86H57.3334V95.5556H66.8889V86Z" stroke="#9B9B9B" stroke-width="0.1075"/>
<path d="M76.4443 86H66.8888V95.5556H76.4443V86Z" stroke="#9B9B9B" stroke-width="0.1075"/>
<path d="M86 86H76.4445V95.5556H86V86Z" stroke="#9B9B9B" stroke-width="0.1075"/>
<path d="M95.5556 86H86V95.5556H95.5556V86Z" stroke="#9B9B9B" stroke-width="0.1075"/>
<path d="M105.111 86H95.5555V95.5556H105.111V86Z" stroke="#9B9B9B" stroke-width="0.1075"/>
<path d="M114.667 86H105.111V95.5556H114.667V86Z" stroke="#9B9B9B" stroke-width="0.1075"/>
<path d="M124.222 86H114.667V95.5556H124.222V86Z" stroke="#9B9B9B" stroke-width="0.1075"/>
<path d="M133.778 86H124.222V95.5556H133.778V86Z" stroke="#9B9B9B" stroke-width="0.1075"/>
<path d="M143.333 86H133.778V95.5556H143.333V86Z" stroke="#9B9B9B" stroke-width="0.1075"/>
<path d="M152.889 86H143.333V95.5556H152.889V86Z" stroke="#9B9B9B" stroke-width="0.1075"/>
<path d="M162.444 86H152.889V95.5556H162.444V86Z" stroke="#9B9B9B" stroke-width="0.1075"/>
<path d="M172 86H162.444V95.5556H172V86Z" stroke="#9B9B9B" stroke-width="0.1075"/>
<path d="M181.556 86H172V95.5556H181.556V86Z" stroke="#9B9B9B" stroke-width="0.1075"/>
<path d="M9.55556 95.5556H0V105.111H9.55556V95.5556Z" stroke="#9B9B9B" stroke-width="0.1075"/>
<path d="M19.1111 95.5556H9.55554V105.111H19.1111V95.5556Z" stroke="#9B9B9B" stroke-width="0.1075"/>
<path d="M28.6668 95.5556H19.1112V105.111H28.6668V95.5556Z" stroke="#9B9B9B" stroke-width="0.1075"/>
<path d="M38.2222 95.5556H28.6666V105.111H38.2222V95.5556Z" stroke="#9B9B9B" stroke-width="0.1075"/>
<path d="M47.7777 95.5556H38.2222V105.111H47.7777V95.5556Z" stroke="#9B9B9B" stroke-width="0.1075"/>
<path d="M57.3334 95.5556H47.7778V105.111H57.3334V95.5556Z" stroke="#9B9B9B" stroke-width="0.1075"/>
<path d="M66.8889 95.5556H57.3334V105.111H66.8889V95.5556Z" stroke="#9B9B9B" stroke-width="0.1075"/>
<path d="M76.4443 95.5556H66.8888V105.111H76.4443V95.5556Z" stroke="#9B9B9B" stroke-width="0.1075"/>
<path d="M86 95.5556H76.4445V105.111H86V95.5556Z" stroke="#9B9B9B" stroke-width="0.1075"/>
<path d="M95.5556 95.5556H86V105.111H95.5556V95.5556Z" stroke="#9B9B9B" stroke-width="0.1075"/>
<path d="M105.111 95.5556H95.5555V105.111H105.111V95.5556Z" stroke="#9B9B9B" stroke-width="0.1075"/>
<path d="M114.667 95.5556H105.111V105.111H114.667V95.5556Z" stroke="#9B9B9B" stroke-width="0.1075"/>
<path d="M124.222 95.5556H114.667V105.111H124.222V95.5556Z" stroke="#9B9B9B" stroke-width="0.1075"/>
<path d="M133.778 95.5556H124.222V105.111H133.778V95.5556Z" stroke="#9B9B9B" stroke-width="0.1075"/>
<path d="M143.333 95.5556H133.778V105.111H143.333V95.5556Z" stroke="#9B9B9B" stroke-width="0.1075"/>
<path d="M152.889 95.5556H143.333V105.111H152.889V95.5556Z" stroke="#9B9B9B" stroke-width="0.1075"/>
<path d="M162.444 95.5556H152.889V105.111H162.444V95.5556Z" stroke="#9B9B9B" stroke-width="0.1075"/>
<path d="M172 95.5556H162.444V105.111H172V95.5556Z" stroke="#9B9B9B" stroke-width="0.1075"/>
<path d="M181.556 95.5556H172V105.111H181.556V95.5556Z" stroke="#9B9B9B" stroke-width="0.1075"/>
<path d="M9.55556 105.111H0V114.667H9.55556V105.111Z" stroke="#9B9B9B" stroke-width="0.1075"/>
<path d="M19.1111 105.111H9.55554V114.667H19.1111V105.111Z" stroke="#9B9B9B" stroke-width="0.1075"/>
<path d="M28.6668 105.111H19.1112V114.667H28.6668V105.111Z" stroke="#9B9B9B" stroke-width="0.1075"/>
<path d="M38.2222 105.111H28.6666V114.667H38.2222V105.111Z" stroke="#9B9B9B" stroke-width="0.1075"/>
<path d="M47.7777 105.111H38.2222V114.667H47.7777V105.111Z" stroke="#9B9B9B" stroke-width="0.1075"/>
<path d="M57.3334 105.111H47.7778V114.667H57.3334V105.111Z" stroke="#9B9B9B" stroke-width="0.1075"/>
<path d="M66.8889 105.111H57.3334V114.667H66.8889V105.111Z" stroke="#9B9B9B" stroke-width="0.1075"/>
<path d="M76.4443 105.111H66.8888V114.667H76.4443V105.111Z" stroke="#9B9B9B" stroke-width="0.1075"/>
<path d="M86 105.111H76.4445V114.667H86V105.111Z" stroke="#9B9B9B" stroke-width="0.1075"/>
<path d="M95.5556 105.111H86V114.667H95.5556V105.111Z" stroke="#9B9B9B" stroke-width="0.1075"/>
<path d="M105.111 105.111H95.5555V114.667H105.111V105.111Z" stroke="#9B9B9B" stroke-width="0.1075"/>
<path d="M114.667 105.111H105.111V114.667H114.667V105.111Z" stroke="#9B9B9B" stroke-width="0.1075"/>
<path d="M124.222 105.111H114.667V114.667H124.222V105.111Z" stroke="#9B9B9B" stroke-width="0.1075"/>
<path d="M133.778 105.111H124.222V114.667H133.778V105.111Z" stroke="#9B9B9B" stroke-width="0.1075"/>
<path d="M143.333 105.111H133.778V114.667H143.333V105.111Z" stroke="#9B9B9B" stroke-width="0.1075"/>
<path d="M152.889 105.111H143.333V114.667H152.889V105.111Z" stroke="#9B9B9B" stroke-width="0.1075"/>
<path d="M162.444 105.111H152.889V114.667H162.444V105.111Z" stroke="#9B9B9B" stroke-width="0.1075"/>
<path d="M172 105.111H162.444V114.667H172V105.111Z" stroke="#9B9B9B" stroke-width="0.1075"/>
<path d="M181.556 105.111H172V114.667H181.556V105.111Z" stroke="#9B9B9B" stroke-width="0.1075"/>
<path d="M9.55556 114.667H0V124.222H9.55556V114.667Z" stroke="#9B9B9B" stroke-width="0.1075"/>
<path d="M19.1111 114.667H9.55554V124.222H19.1111V114.667Z" stroke="#9B9B9B" stroke-width="0.1075"/>
<path d="M28.6668 114.667H19.1112V124.222H28.6668V114.667Z" stroke="#9B9B9B" stroke-width="0.1075"/>
<path d="M38.2222 114.667H28.6666V124.222H38.2222V114.667Z" stroke="#9B9B9B" stroke-width="0.1075"/>
<path d="M47.7777 114.667H38.2222V124.222H47.7777V114.667Z" stroke="#9B9B9B" stroke-width="0.1075"/>
<path d="M57.3334 114.667H47.7778V124.222H57.3334V114.667Z" stroke="#9B9B9B" stroke-width="0.1075"/>
<path d="M66.8889 114.667H57.3334V124.222H66.8889V114.667Z" stroke="#9B9B9B" stroke-width="0.1075"/>
<path d="M76.4443 114.667H66.8888V124.222H76.4443V114.667Z" stroke="#9B9B9B" stroke-width="0.1075"/>
<path d="M86 114.667H76.4445V124.222H86V114.667Z" stroke="#9B9B9B" stroke-width="0.1075"/>
<path d="M95.5556 114.667H86V124.222H95.5556V114.667Z" stroke="#9B9B9B" stroke-width="0.1075"/>
<path d="M105.111 114.667H95.5555V124.222H105.111V114.667Z" stroke="#9B9B9B" stroke-width="0.1075"/>
<path d="M114.667 114.667H105.111V124.222H114.667V114.667Z" stroke="#9B9B9B" stroke-width="0.1075"/>
<path d="M124.222 114.667H114.667V124.222H124.222V114.667Z" stroke="#9B9B9B" stroke-width="0.1075"/>
<path d="M133.778 114.667H124.222V124.222H133.778V114.667Z" stroke="#9B9B9B" stroke-width="0.1075"/>
<path d="M143.333 114.667H133.778V124.222H143.333V114.667Z" stroke="#9B9B9B" stroke-width="0.1075"/>
<path d="M152.889 114.667H143.333V124.222H152.889V114.667Z" stroke="#9B9B9B" stroke-width="0.1075"/>
<path d="M162.444 114.667H152.889V124.222H162.444V114.667Z" stroke="#9B9B9B" stroke-width="0.1075"/>
<path d="M172 114.667H162.444V124.222H172V114.667Z" stroke="#9B9B9B" stroke-width="0.1075"/>
<path d="M181.556 114.667H172V124.222H181.556V114.667Z" stroke="#9B9B9B" stroke-width="0.1075"/>
<path d="M9.55556 124.222H0V133.778H9.55556V124.222Z" stroke="#9B9B9B" stroke-width="0.1075"/>
<path d="M19.1111 124.222H9.55554V133.778H19.1111V124.222Z" stroke="#9B9B9B" stroke-width="0.1075"/>
<path d="M28.6668 124.222H19.1112V133.778H28.6668V124.222Z" stroke="#9B9B9B" stroke-width="0.1075"/>
<path d="M38.2222 124.222H28.6666V133.778H38.2222V124.222Z" stroke="#9B9B9B" stroke-width="0.1075"/>
<path d="M47.7777 124.222H38.2222V133.778H47.7777V124.222Z" stroke="#9B9B9B" stroke-width="0.1075"/>
<path d="M57.3334 124.222H47.7778V133.778H57.3334V124.222Z" stroke="#9B9B9B" stroke-width="0.1075"/>
<path d="M66.8889 124.222H57.3334V133.778H66.8889V124.222Z" stroke="#9B9B9B" stroke-width="0.1075"/>
<path d="M76.4443 124.222H66.8888V133.778H76.4443V124.222Z" stroke="#9B9B9B" stroke-width="0.1075"/>
<path d="M86 124.222H76.4445V133.778H86V124.222Z" stroke="#9B9B9B" stroke-width="0.1075"/>
<path d="M95.5556 124.222H86V133.778H95.5556V124.222Z" stroke="#9B9B9B" stroke-width="0.1075"/>
<path d="M105.111 124.222H95.5555V133.778H105.111V124.222Z" stroke="#9B9B9B" stroke-width="0.1075"/>
<path d="M114.667 124.222H105.111V133.778H114.667V124.222Z" stroke="#9B9B9B" stroke-width="0.1075"/>
<path d="M124.222 124.222H114.667V133.778H124.222V124.222Z" stroke="#9B9B9B" stroke-width="0.1075"/>
<path d="M133.778 124.222H124.222V133.778H133.778V124.222Z" stroke="#9B9B9B" stroke-width="0.1075"/>
<path d="M143.333 124.222H133.778V133.778H143.333V124.222Z" stroke="#9B9B9B" stroke-width="0.1075"/>
<path d="M152.889 124.222H143.333V133.778H152.889V124.222Z" stroke="#9B9B9B" stroke-width="0.1075"/>
<path d="M162.444 124.222H152.889V133.778H162.444V124.222Z" stroke="#9B9B9B" stroke-width="0.1075"/>
<path d="M172 124.222H162.444V133.778H172V124.222Z" stroke="#9B9B9B" stroke-width="0.1075"/>
<path d="M181.556 124.222H172V133.778H181.556V124.222Z" stroke="#9B9B9B" stroke-width="0.1075"/>
<path d="M9.55556 133.778H0V143.333H9.55556V133.778Z" stroke="#9B9B9B" stroke-width="0.1075"/>
<path d="M19.1111 133.778H9.55554V143.333H19.1111V133.778Z" stroke="#9B9B9B" stroke-width="0.1075"/>
<path d="M28.6668 133.778H19.1112V143.333H28.6668V133.778Z" stroke="#9B9B9B" stroke-width="0.1075"/>
<path d="M38.2222 133.778H28.6666V143.333H38.2222V133.778Z" stroke="#9B9B9B" stroke-width="0.1075"/>
<path d="M47.7777 133.778H38.2222V143.333H47.7777V133.778Z" stroke="#9B9B9B" stroke-width="0.1075"/>
<path d="M57.3334 133.778H47.7778V143.333H57.3334V133.778Z" stroke="#9B9B9B" stroke-width="0.1075"/>
<path d="M66.8889 133.778H57.3334V143.333H66.8889V133.778Z" stroke="#9B9B9B" stroke-width="0.1075"/>
<path d="M76.4443 133.778H66.8888V143.333H76.4443V133.778Z" stroke="#9B9B9B" stroke-width="0.1075"/>
<path d="M86 133.778H76.4445V143.333H86V133.778Z" stroke="#9B9B9B" stroke-width="0.1075"/>
<path d="M95.5556 133.778H86V143.333H95.5556V133.778Z" stroke="#9B9B9B" stroke-width="0.1075"/>
<path d="M105.111 133.778H95.5555V143.333H105.111V133.778Z" stroke="#9B9B9B" stroke-width="0.1075"/>
<path d="M114.667 133.778H105.111V143.333H114.667V133.778Z" stroke="#9B9B9B" stroke-width="0.1075"/>
<path d="M124.222 133.778H114.667V143.333H124.222V133.778Z" stroke="#9B9B9B" stroke-width="0.1075"/>
<path d="M133.778 133.778H124.222V143.333H133.778V133.778Z" stroke="#9B9B9B" stroke-width="0.1075"/>
<path d="M143.333 133.778H133.778V143.333H143.333V133.778Z" stroke="#9B9B9B" stroke-width="0.1075"/>
<path d="M152.889 133.778H143.333V143.333H152.889V133.778Z" stroke="#9B9B9B" stroke-width="0.1075"/>
<path d="M162.444 133.778H152.889V143.333H162.444V133.778Z" stroke="#9B9B9B" stroke-width="0.1075"/>
<path d="M172 133.778H162.444V143.333H172V133.778Z" stroke="#9B9B9B" stroke-width="0.1075"/>
<path d="M181.556 133.778H172V143.333H181.556V133.778Z" stroke="#9B9B9B" stroke-width="0.1075"/>
<path d="M9.55556 143.333H0V152.889H9.55556V143.333Z" stroke="#9B9B9B" stroke-width="0.1075"/>
<path d="M19.1111 143.333H9.55554V152.889H19.1111V143.333Z" stroke="#9B9B9B" stroke-width="0.1075"/>
<path d="M28.6668 143.333H19.1112V152.889H28.6668V143.333Z" stroke="#9B9B9B" stroke-width="0.1075"/>
<path d="M38.2222 143.333H28.6666V152.889H38.2222V143.333Z" stroke="#9B9B9B" stroke-width="0.1075"/>
<path d="M47.7777 143.333H38.2222V152.889H47.7777V143.333Z" stroke="#9B9B9B" stroke-width="0.1075"/>
<path d="M57.3334 143.333H47.7778V152.889H57.3334V143.333Z" stroke="#9B9B9B" stroke-width="0.1075"/>
<path d="M66.8889 143.333H57.3334V152.889H66.8889V143.333Z" stroke="#9B9B9B" stroke-width="0.1075"/>
<path d="M76.4443 143.333H66.8888V152.889H76.4443V143.333Z" stroke="#9B9B9B" stroke-width="0.1075"/>
<path d="M86 143.333H76.4445V152.889H86V143.333Z" stroke="#9B9B9B" stroke-width="0.1075"/>
<path d="M95.5556 143.333H86V152.889H95.5556V143.333Z" stroke="#9B9B9B" stroke-width="0.1075"/>
<path d="M105.111 143.333H95.5555V152.889H105.111V143.333Z" stroke="#9B9B9B" stroke-width="0.1075"/>
<path d="M114.667 143.333H105.111V152.889H114.667V143.333Z" stroke="#9B9B9B" stroke-width="0.1075"/>
<path d="M124.222 143.333H114.667V152.889H124.222V143.333Z" stroke="#9B9B9B" stroke-width="0.1075"/>
<path d="M133.778 143.333H124.222V152.889H133.778V143.333Z" stroke="#9B9B9B" stroke-width="0.1075"/>
<path d="M143.333 143.333H133.778V152.889H143.333V143.333Z" stroke="#9B9B9B" stroke-width="0.1075"/>
<path d="M152.889 143.333H143.333V152.889H152.889V143.333Z" stroke="#9B9B9B" stroke-width="0.1075"/>
<path d="M162.444 143.333H152.889V152.889H162.444V143.333Z" stroke="#9B9B9B" stroke-width="0.1075"/>
<path d="M172 143.333H162.444V152.889H172V143.333Z" stroke="#9B9B9B" stroke-width="0.1075"/>
<path d="M181.556 143.333H172V152.889H181.556V143.333Z" stroke="#9B9B9B" stroke-width="0.1075"/>
<path d="M9.55556 152.889H0V162.444H9.55556V152.889Z" stroke="#9B9B9B" stroke-width="0.1075"/>
<path d="M19.1111 152.889H9.55554V162.444H19.1111V152.889Z" stroke="#9B9B9B" stroke-width="0.1075"/>
<path d="M28.6668 152.889H19.1112V162.444H28.6668V152.889Z" stroke="#9B9B9B" stroke-width="0.1075"/>
<path d="M38.2222 152.889H28.6666V162.444H38.2222V152.889Z" stroke="#9B9B9B" stroke-width="0.1075"/>
<path d="M47.7777 152.889H38.2222V162.444H47.7777V152.889Z" stroke="#9B9B9B" stroke-width="0.1075"/>
<path d="M57.3334 152.889H47.7778V162.444H57.3334V152.889Z" stroke="#9B9B9B" stroke-width="0.1075"/>
<path d="M66.8889 152.889H57.3334V162.444H66.8889V152.889Z" stroke="#9B9B9B" stroke-width="0.1075"/>
<path d="M76.4443 152.889H66.8888V162.444H76.4443V152.889Z" stroke="#9B9B9B" stroke-width="0.1075"/>
<path d="M86 152.889H76.4445V162.444H86V152.889Z" stroke="#9B9B9B" stroke-width="0.1075"/>
<path d="M95.5556 152.889H86V162.444H95.5556V152.889Z" stroke="#9B9B9B" stroke-width="0.1075"/>
<path d="M105.111 152.889H95.5555V162.444H105.111V152.889Z" stroke="#9B9B9B" stroke-width="0.1075"/>
<path d="M114.667 152.889H105.111V162.444H114.667V152.889Z" stroke="#9B9B9B" stroke-width="0.1075"/>
<path d="M124.222 152.889H114.667V162.444H124.222V152.889Z" stroke="#9B9B9B" stroke-width="0.1075"/>
<path d="M133.778 152.889H124.222V162.444H133.778V152.889Z" stroke="#9B9B9B" stroke-width="0.1075"/>
<path d="M143.333 152.889H133.778V162.444H143.333V152.889Z" stroke="#9B9B9B" stroke-width="0.1075"/>
<path d="M152.889 152.889H143.333V162.444H152.889V152.889Z" stroke="#9B9B9B" stroke-width="0.1075"/>
<path d="M162.444 152.889H152.889V162.444H162.444V152.889Z" stroke="#9B9B9B" stroke-width="0.1075"/>
<path d="M172 152.889H162.444V162.444H172V152.889Z" stroke="#9B9B9B" stroke-width="0.1075"/>
<path d="M181.556 152.889H172V162.444H181.556V152.889Z" stroke="#9B9B9B" stroke-width="0.1075"/>
<path d="M9.55556 162.444H0V172H9.55556V162.444Z" stroke="#9B9B9B" stroke-width="0.1075"/>
<path d="M19.1111 162.444H9.55554V172H19.1111V162.444Z" stroke="#9B9B9B" stroke-width="0.1075"/>
<path d="M28.6668 162.444H19.1112V172H28.6668V162.444Z" stroke="#9B9B9B" stroke-width="0.1075"/>
<path d="M38.2222 162.444H28.6666V172H38.2222V162.444Z" stroke="#9B9B9B" stroke-width="0.1075"/>
<path d="M47.7777 162.444H38.2222V172H47.7777V162.444Z" stroke="#9B9B9B" stroke-width="0.1075"/>
<path d="M57.3334 162.444H47.7778V172H57.3334V162.444Z" stroke="#9B9B9B" stroke-width="0.1075"/>
<path d="M66.8889 162.444H57.3334V172H66.8889V162.444Z" stroke="#9B9B9B" stroke-width="0.1075"/>
<path d="M76.4443 162.444H66.8888V172H76.4443V162.444Z" stroke="#9B9B9B" stroke-width="0.1075"/>
<path d="M86 162.444H76.4445V172H86V162.444Z" stroke="#9B9B9B" stroke-width="0.1075"/>
<path d="M95.5556 162.444H86V172H95.5556V162.444Z" stroke="#9B9B9B" stroke-width="0.1075"/>
<path d="M105.111 162.444H95.5555V172H105.111V162.444Z" stroke="#9B9B9B" stroke-width="0.1075"/>
<path d="M114.667 162.444H105.111V172H114.667V162.444Z" stroke="#9B9B9B" stroke-width="0.1075"/>
<path d="M124.222 162.444H114.667V172H124.222V162.444Z" stroke="#9B9B9B" stroke-width="0.1075"/>
<path d="M133.778 162.444H124.222V172H133.778V162.444Z" stroke="#9B9B9B" stroke-width="0.1075"/>
<path d="M143.333 162.444H133.778V172H143.333V162.444Z" stroke="#9B9B9B" stroke-width="0.1075"/>
<path d="M152.889 162.444H143.333V172H152.889V162.444Z" stroke="#9B9B9B" stroke-width="0.1075"/>
<path d="M162.444 162.444H152.889V172H162.444V162.444Z" stroke="#9B9B9B" stroke-width="0.1075"/>
<path d="M172 162.444H162.444V172H172V162.444Z" stroke="#9B9B9B" stroke-width="0.1075"/>
<path d="M181.556 162.444H172V172H181.556V162.444Z" stroke="#9B9B9B" stroke-width="0.1075"/>
<path d="M9.55556 172H0V181.556H9.55556V172Z" stroke="#9B9B9B" stroke-width="0.1075"/>
<path d="M19.1111 172H9.55554V181.556H19.1111V172Z" stroke="#9B9B9B" stroke-width="0.1075"/>
<path d="M28.6668 172H19.1112V181.556H28.6668V172Z" stroke="#9B9B9B" stroke-width="0.1075"/>
<path d="M38.2222 172H28.6666V181.556H38.2222V172Z" stroke="#9B9B9B" stroke-width="0.1075"/>
<path d="M47.7777 172H38.2222V181.556H47.7777V172Z" stroke="#9B9B9B" stroke-width="0.1075"/>
<path d="M57.3334 172H47.7778V181.556H57.3334V172Z" stroke="#9B9B9B" stroke-width="0.1075"/>
<path d="M66.8889 172H57.3334V181.556H66.8889V172Z" stroke="#9B9B9B" stroke-width="0.1075"/>
<path d="M76.4443 172H66.8888V181.556H76.4443V172Z" stroke="#9B9B9B" stroke-width="0.1075"/>
<path d="M86 172H76.4445V181.556H86V172Z" stroke="#9B9B9B" stroke-width="0.1075"/>
<path d="M95.5556 172H86V181.556H95.5556V172Z" stroke="#9B9B9B" stroke-width="0.1075"/>
<path d="M105.111 172H95.5555V181.556H105.111V172Z" stroke="#9B9B9B" stroke-width="0.1075"/>
<path d="M114.667 172H105.111V181.556H114.667V172Z" stroke="#9B9B9B" stroke-width="0.1075"/>
<path d="M124.222 172H114.667V181.556H124.222V172Z" stroke="#9B9B9B" stroke-width="0.1075"/>
<path d="M133.778 172H124.222V181.556H133.778V172Z" stroke="#9B9B9B" stroke-width="0.1075"/>
<path d="M143.333 172H133.778V181.556H143.333V172Z" stroke="#9B9B9B" stroke-width="0.1075"/>
<path d="M152.889 172H143.333V181.556H152.889V172Z" stroke="#9B9B9B" stroke-width="0.1075"/>
<path d="M162.444 172H152.889V181.556H162.444V172Z" stroke="#9B9B9B" stroke-width="0.1075"/>
<path d="M172 172H162.444V181.556H172V172Z" stroke="#9B9B9B" stroke-width="0.1075"/>
<path d="M181.556 172H172V181.556H181.556V172Z" stroke="#9B9B9B" stroke-width="0.1075"/>
</g>
<defs>
<clipPath id="clip0_80_3325">
<rect width="172" height="172" fill="white"/>
</clipPath>
</defs>
</svg>
